<svg width="273" height="298" viewBox="0 0 273 298" fill="none" xmlns="http://www.w3.org/2000/svg">
<g clip-path="url(#clip0_1529_9963)">
<path d="M20.8104 -0.000488281V18.7984H16.5692V13.2802C16.5692 10.2703 16.5954 7.41874 16.7271 4.19755C16.3321 5.62334 15.9633 6.86454 15.4629 8.47493L12.2229 18.7984H8.5875L5.3475 8.47493C4.84708 6.86454 4.47792 5.65007 4.10958 4.22428C4.21458 7.44547 4.24125 10.2703 4.24125 13.2802V18.7984H0V-0.000488281H6.66458L9.14083 8.07902C9.58875 9.58374 10.0363 11.2209 10.4313 12.7523C10.8263 11.1946 11.2742 9.50481 11.6958 7.99967L14.1458 -0.000488281H20.8104Z" fill="white"/>
<path d="M32.8492 11.9865C32.8492 9.39924 31.7167 8.15845 29.8992 8.15845C28.055 8.15845 26.9221 9.39924 26.9221 11.9865C26.9221 14.5741 28.055 15.8153 29.8992 15.8153C31.7167 15.8153 32.8492 14.5741 32.8492 11.9865ZM22.7604 11.9865C22.7604 7.65646 25.5525 4.85791 29.8992 4.85791C34.2192 4.85791 37.0113 7.65646 37.0113 11.9865C37.0113 16.3169 34.2192 19.1154 29.8992 19.1154C25.5525 19.1154 22.7604 16.3169 22.7604 11.9865Z" fill="white"/>
<path d="M51.8158 9.8745V18.7985H47.7062V10.6931C47.7062 9.18792 47.0479 8.36936 45.52 8.36936C44.2554 8.36936 42.9387 9.18792 42.9387 11.1946V18.7985H38.8292V5.17489H42.8333V7.10226C43.7287 5.83475 45.125 4.85791 47.1004 4.85791C49.7875 4.85791 51.8158 6.49461 51.8158 9.8745Z" fill="white"/>
<path d="M63.7225 11.9865C63.7225 9.39924 62.59 8.15845 60.7725 8.15845C58.9283 8.15845 57.7958 9.39924 57.7958 11.9865C57.7958 14.5741 58.9283 15.8153 60.7725 15.8153C62.59 15.8153 63.7225 14.5741 63.7225 11.9865ZM53.6337 11.9865C53.6337 7.65646 56.4258 4.85791 60.7725 4.85791C65.0925 4.85791 67.885 7.65646 67.885 11.9865C67.885 16.3169 65.0925 19.1154 60.7725 19.1154C56.4258 19.1154 53.6337 16.3169 53.6337 11.9865Z" fill="white"/>
<path d="M74.3392 8.26381V14.5216C74.3392 15.5511 74.8396 15.7361 75.8933 15.7361H76.9471V18.7986C76.315 18.8516 75.6562 18.9042 75.0504 18.9042C71.6521 18.9042 70.2296 17.7954 70.2296 14.9969V8.26381H68.2017V5.17501H70.2296V1.13525H74.3392V5.17501H76.9471V8.26381H74.3392Z" fill="white"/>
<path d="M91.9888 5.1748L87.0625 19.3267C85.8775 22.7588 84.3229 24 80.2929 24C79.5025 24 79.1075 23.9737 78.6858 23.9469V20.7788H80.0029C81.5308 20.7788 82.0575 19.9076 82.0575 18.8777C82.0575 18.1122 81.7417 17.1354 81.4254 16.2375L77.5267 5.1748H81.9525L82.5583 7.10218C83.3483 9.76876 84.1388 12.5673 84.8763 15.6828C85.6138 12.541 86.3775 9.76876 87.1417 7.12849L87.7475 5.1748H91.9888Z" fill="white"/>
<path d="M102.947 11.8812C102.947 9.29358 101.867 8.15845 100.05 8.15845C98.2058 8.15845 97.1258 9.39924 97.1258 11.9865C97.1258 14.5741 98.2058 15.8153 100.05 15.8153C101.867 15.8153 102.947 14.4685 102.947 11.8812ZM107.109 11.9865C107.109 16.3169 104.87 19.1154 101.182 19.1154C99.3387 19.1154 98.0479 18.3762 97.1787 17.1355V23.9738H93.0692V5.17489H97.0733V6.9966C97.9425 5.67647 99.2596 4.85791 101.182 4.85791C104.87 4.85791 107.109 7.65646 107.109 11.9865Z" fill="white"/>
<path d="M112.352 10.5874H118.358C118.068 8.89766 116.988 7.89409 115.329 7.89409C113.827 7.89409 112.668 8.68634 112.352 10.5874ZM122.388 13.2014H112.325C112.615 15.155 113.827 16.0793 115.434 16.0793C116.804 16.0793 117.699 15.5246 118.174 14.5478H122.072C121.335 17.4257 118.701 19.1154 115.434 19.1154C111.219 19.1154 108.375 16.3169 108.375 11.9865C108.375 7.68277 111.14 4.85791 115.381 4.85791C119.622 4.85791 122.388 7.78843 122.388 12.3828V13.2014Z" fill="white"/>
<path d="M123.549 14.4419H128V18.7982H123.549V14.4419Z" fill="white"/>
</g>
<path d="M1.344 102.552V102.944H20.832V102.552H19.096C15.344 102.328 14.056 101.152 14.056 97.064C14.056 96.672 14.056 96.392 14.056 96.056V80.712H21.392C21.504 80.712 21.616 80.712 21.784 80.712C28.504 80.712 28.896 87.04 28.952 88.16V88.328H29.288V80.712V80.32V72.704H28.952V72.872C28.896 73.992 28.504 80.208 22.064 80.32H14.056V64.696V58.536H22.904C23.24 58.536 23.8 58.536 24.584 58.536C33.824 58.536 35.28 64.976 36.4 69.848V69.96H36.792V58.088H36.4H14.056H1.288V58.536H3.024C6.832 58.76 8.064 59.88 8.064 64.024C8.064 64.304 8.064 64.528 8.064 64.752V97.008C8.064 101.712 6.44 102.552 1.344 102.552ZM39.3597 80.264C39.3597 83.344 39.8637 86.312 40.9277 89.056C41.8797 91.744 43.2797 94.152 45.1277 96.28C46.9197 98.352 48.9357 99.976 51.2877 101.096C53.6957 102.272 56.2717 102.888 58.9597 102.888H59.8557H61.3117H62.2077C64.8397 102.888 67.4157 102.272 69.8237 101.096C72.1757 99.976 74.3037 98.352 76.0957 96.28C77.8877 94.152 79.3437 91.744 80.3517 89.056C81.3597 86.312 81.8637 83.344 81.8637 80.264C81.8637 77.184 81.3597 74.216 80.3517 71.472C79.3437 68.784 77.8877 66.376 76.0957 64.248C74.3037 62.176 72.1757 60.552 69.8237 59.432C67.4157 58.256 64.8397 57.64 62.2077 57.64H61.3117H59.8557H58.9597C56.2717 57.64 53.6957 58.256 51.2877 59.432C48.9357 60.552 46.9197 62.176 45.1277 64.248C43.2797 66.376 41.8797 68.784 40.9277 71.472C39.8637 74.216 39.3597 77.184 39.3597 80.264ZM45.4637 80.264C45.4637 74.272 46.8637 68.672 49.6077 64.528C50.1117 63.632 50.7837 62.792 51.4557 62.12C53.7517 59.824 56.1597 58.76 57.5037 58.256C58.1757 58.088 58.9597 57.976 59.7437 57.976H60.1917H61.4237C62.2077 57.976 62.8797 58.088 63.6637 58.256C64.9517 58.76 67.3597 59.824 69.7117 62.12C70.3277 62.792 70.9437 63.632 71.5597 64.528C74.3037 68.672 75.7597 74.272 75.7597 80.264C75.7597 86.256 74.3037 91.856 71.5597 96C70.9437 96.896 70.3277 97.736 69.7117 98.408C67.3597 100.704 64.9517 101.768 63.6637 102.272C62.8797 102.44 62.2077 102.608 61.4237 102.608H60.1917H59.7437C58.9597 102.608 58.1757 102.44 57.5037 102.272C56.1597 101.768 53.7517 100.704 51.4557 98.408C50.7837 97.736 50.1117 96.896 49.6077 96C46.8637 91.856 45.4637 86.256 45.4637 80.264ZM125.521 58.256H125.073H115.497V58.648H116.337C118.745 58.704 125.073 59.488 125.073 65.48V93.256L96.9054 58.256H92.1454H91.6974H84.9214V58.648H86.6574C91.9214 58.648 91.6974 60.328 91.6974 63.912V95.776C91.6974 101.824 85.3694 102.608 82.9614 102.664H82.1214V103.056H91.6974H92.1454H101.721V102.664H100.881C98.4734 102.608 92.1454 101.824 92.1454 95.776V61.84L125.073 103.056H125.521V65.48C125.521 59.488 131.849 58.704 134.257 58.648H135.097V58.256H125.521ZM177.483 69.848V58.088H139.403V69.848H139.795V69.736C140.915 65.144 142.203 59.096 150.267 58.536H150.603C154.355 58.76 155.587 59.88 155.587 64.024C155.587 64.304 155.587 64.528 155.587 64.752V97.008C155.587 101.712 154.019 102.552 148.867 102.552V102.944H168.355V102.552H166.619C162.867 102.328 161.635 101.152 161.635 97.064C161.635 96.672 161.635 96.392 161.635 96.056V64.696C161.635 64.472 161.635 64.248 161.635 63.968C161.635 60.104 162.755 58.816 166.059 58.536H166.563C174.627 59.096 175.971 65.144 177.091 69.736V69.848H177.483Z" fill="#DBDFE5"/>
<path d="M8.008 169.056H14H20.72V168.72L20.776 168.664H20.72H19.04C15.288 168.44 14 167.32 14 163.176C14 162.784 14 162.448 14 162.168V146.824H16.128H22.064H22.512C24.976 146.824 27.16 146.544 29.008 145.928C30.8 145.368 32.312 144.584 33.488 143.52C35.728 141.56 36.904 138.816 36.904 135.512C36.904 132.264 35.728 129.464 33.488 127.504C32.312 126.496 30.8 125.656 29.008 125.096C27.16 124.536 24.976 124.256 22.512 124.256H22.064H21H20.496H18.704H1.232V124.592H3.024C6.776 124.816 8.008 125.992 8.008 130.136C8.008 130.36 8.008 130.584 8.008 130.808V163.12C8.008 167.824 6.384 168.664 1.232 168.664V169.056H8.008ZM14 130.808C14 130.584 14 130.36 14 130.08C14 126.16 15.12 124.928 18.48 124.592H20.72H21H22.064C24.976 124.592 27.16 125.656 28.672 127.784C30.016 129.688 30.744 132.376 30.744 135.512C30.744 138.2 30.184 140.496 29.232 142.288C28.56 143.576 27.664 144.472 26.824 145.088C25.536 145.984 23.968 146.488 22.064 146.488H16.128H14V130.808ZM32.0224 168.944H46.9744V168.552C46.7504 168.552 38.0144 168.496 40.7024 161.776L44.9584 151.192H60.5824L64.7264 161.608C67.4704 168.44 65.0064 168.272 59.6304 168.552V168.944H77.9984V168.552C75.0864 168.16 73.4624 168.328 70.7744 161.72L55.7664 124.2H55.3184L40.2544 161.832C37.5664 168.496 32.1904 168.552 32.0224 168.552V168.944ZM60.4144 150.8H45.1264L52.7984 131.704L60.4144 150.8ZM81.4796 168.664V169.056H101.024V168.664H99.2876C95.5356 168.44 94.2476 167.32 94.2476 163.176C94.2476 162.784 94.2476 162.448 94.2476 162.168V130.808C94.2476 130.584 94.2476 130.36 94.2476 130.08C94.2476 126.16 95.3676 124.928 98.7276 124.592H100.968V124.536C100.968 124.536 100.968 124.536 101.024 124.536H100.968V124.256H100.744H81.4796V124.592H83.2716C87.0236 124.816 88.2556 125.992 88.2556 130.136C88.2556 130.36 88.2556 130.584 88.2556 130.808V163.12C88.2556 167.824 86.6316 168.664 81.4796 168.664ZM110.874 169.056H116.922H123.642V168.72V168.664H121.906C118.154 168.44 116.922 167.32 116.922 163.176C116.922 162.784 116.922 162.448 116.922 162.168V146.824H118.994C120.786 146.88 122.242 147.16 124.426 150.128L138.09 169.056H138.426H144.922H149.29V168.664H149.234C148.73 168.664 144.586 168.552 142.458 165.696L131.93 151.08C129.802 148.168 127.898 147.16 126.442 146.824C128.458 146.712 130.306 146.488 131.93 145.928C133.666 145.368 135.178 144.584 136.41 143.52C138.65 141.56 139.826 138.816 139.826 135.512C139.826 132.264 138.65 129.464 136.41 127.504C135.178 126.496 133.666 125.656 131.93 125.096C130.026 124.536 127.842 124.256 125.434 124.256H124.986H123.866H123.418H123.362H121.57H104.098V124.592H105.89C109.642 124.816 110.874 125.992 110.874 130.136C110.874 130.36 110.874 130.584 110.874 130.808V163.12C110.874 167.824 109.306 168.664 104.154 168.664H104.098V169.056H110.874ZM116.922 130.808C116.922 130.584 116.922 130.36 116.922 130.08C116.922 126.16 118.042 124.928 121.346 124.592H123.642H123.866H124.986C127.842 124.592 130.026 125.656 131.538 127.784C132.882 129.688 133.61 132.376 133.61 135.512C133.61 138.2 133.05 140.496 132.154 142.288C131.426 143.576 130.53 144.472 129.69 145.088C128.402 145.984 126.834 146.488 124.986 146.488H118.994H116.922V130.808ZM152.683 168.664V169.056H172.227V168.664H170.491C166.739 168.44 165.451 167.32 165.451 163.176C165.451 162.784 165.451 162.448 165.451 162.168V130.808C165.451 130.584 165.451 130.36 165.451 130.08C165.451 126.16 166.571 124.928 169.931 124.592H172.171V124.536C172.171 124.536 172.171 124.536 172.227 124.536H172.171V124.256H171.947H152.683V124.592H154.475C158.227 124.816 159.459 125.992 159.459 130.136C159.459 130.36 159.459 130.584 159.459 130.808V163.12C159.459 167.824 157.835 168.664 152.683 168.664ZM219.037 124.256H218.589H209.013V124.648H209.853C212.261 124.704 218.589 125.488 218.589 131.48V159.256L190.421 124.256H185.661H185.213H178.437V124.648H180.173C185.437 124.648 185.213 126.328 185.213 129.912V161.776C185.213 167.824 178.885 168.608 176.477 168.664H175.637V169.056H185.213H185.661H195.237V168.664H194.397C191.989 168.608 185.661 167.824 185.661 161.776V127.84L218.589 169.056H219.037V131.48C219.037 125.488 225.365 124.704 227.773 124.648H228.613V124.256H219.037ZM229.032 146.544C229.032 149.624 229.592 152.536 230.6 155.336C231.608 158.024 233.064 160.432 234.856 162.504C236.648 164.632 238.72 166.2 241.128 167.376C243.536 168.552 246.112 169.112 248.744 169.112C250.144 169.112 251.544 168.944 252.832 168.608C257.704 167.264 263.08 163.232 265.88 165.976H266.272V163.288V153.544C266.272 150.968 267.56 150.856 270.92 150.856V150.408H253V150.856C257.032 150.856 260.336 150.968 260.336 154.272V159.48C260.336 163.064 258.264 165.08 257.648 165.64C256.528 166.48 255.352 167.208 254.064 167.768C252.664 168.328 251.152 168.664 249.64 168.72C248.688 168.72 247.792 168.608 246.896 168.328C245.664 167.88 243.816 166.984 241.968 165.304C237.88 161.44 235.192 154.44 235.192 146.544C235.192 134.336 241.632 124.368 249.64 124.368V124.312C251.152 124.424 252.664 124.76 254.12 125.376C255.8 126.048 257.368 127.112 258.768 128.456C260.224 129.912 261.456 131.648 262.408 133.664C263.416 135.848 264.144 138.312 264.536 141.056H264.872V124.76H264.536C264.536 124.76 263.864 129.576 256.08 125.88C255.576 125.656 255.072 125.376 254.568 125.152C254.456 125.096 254.344 125.04 254.344 125.04C254.288 124.984 254.232 124.984 254.232 124.984C252.496 124.312 250.648 123.92 248.744 123.92C246.112 123.92 243.536 124.536 241.128 125.712C238.72 126.888 236.648 128.512 234.856 130.584C233.064 132.656 231.608 135.064 230.6 137.752C229.592 140.552 229.032 143.52 229.032 146.544Z" fill="#DBDFE5"/>
<path d="M7.6 221.304C11.4 221.304 14.003 218.397 14.003 214.236C14.003 210.132 11.4 207.225 7.6 207.225C3.819 207.225 1.216 210.132 1.216 214.236C1.216 218.359 3.819 221.304 7.6 221.304ZM7.619 219.727C4.921 219.727 3.021 217.58 3.021 214.236C3.021 210.911 4.921 208.802 7.619 208.802C10.298 208.802 12.198 210.911 12.198 214.236C12.198 217.618 10.336 219.727 7.619 219.727ZM23.2328 211.196V216.649C23.2328 218.986 21.7888 219.727 20.4398 219.727C19.1098 219.727 18.4828 219.005 18.4828 217.656V211.196H16.7348V217.998C16.7348 220.069 18.0078 221.247 20.0598 221.247C21.5038 221.247 22.6818 220.658 23.3468 219.613V221H24.9808V211.196H23.2328ZM32.6711 210.93C31.1891 210.93 30.2391 211.766 29.6501 213.077V211.196H28.0161V221H29.7641V215.642C29.8401 213.647 31.2841 212.64 32.5761 212.64C32.7471 212.64 32.9371 212.64 33.2031 212.659V210.968C33.0321 210.949 32.8611 210.93 32.6711 210.93ZM50.5443 210.949C49.1193 210.949 48.0743 211.519 47.4283 212.659C46.9913 211.538 46.0413 210.949 44.7113 210.949C43.3433 210.949 42.3743 211.557 41.7283 212.64L41.8043 211.196H40.1323V221H41.8803V215.775C41.8803 213.248 43.1343 212.469 44.2743 212.469C45.3573 212.469 45.9653 213.153 45.9653 214.293V221H47.7133V215.68C47.7133 213.153 48.9673 212.469 50.1073 212.469C51.1903 212.469 51.7983 213.153 51.7983 214.293V221H53.5463V214.274C53.5463 211.994 52.4633 210.949 50.5443 210.949ZM60.7323 221.247C63.4873 221.247 65.4633 219.1 65.4633 216.022C65.4633 212.906 63.5253 210.949 60.7893 210.949C57.9773 210.949 56.0203 212.944 56.0203 216.098C56.0203 219.176 57.9203 221.247 60.7323 221.247ZM60.7323 219.784C58.8893 219.784 57.7683 218.321 57.7683 216.098C57.7683 213.875 58.8703 212.412 60.7323 212.412C62.6323 212.412 63.7153 213.799 63.7153 216.022C63.7153 218.245 62.6323 219.784 60.7323 219.784ZM72.6582 210.987C71.3852 210.987 70.3022 211.519 69.6752 212.393V207.472H67.9272V221H69.4472V219.461C70.0172 220.487 71.1762 221.209 72.5822 221.209C75.2422 221.209 76.8762 218.91 76.8762 215.87C76.8762 212.906 75.1472 210.987 72.6582 210.987ZM72.4112 219.708C70.7772 219.708 69.5802 218.302 69.5802 215.984C69.5802 213.666 70.7772 212.488 72.4112 212.488C74.1022 212.488 75.1282 213.628 75.1282 215.87C75.1282 218.15 74.1022 219.708 72.4112 219.708ZM79.3384 209.353H81.0864V207.472H79.3384V209.353ZM79.3384 221H81.0864V211.196H79.3384V221ZM86.3105 221H87.7165V219.537H86.8235C86.1015 219.537 85.8735 219.309 85.8735 218.587V207.472H84.1255V218.815C84.1255 220.335 84.7905 221 86.3105 221ZM98.1487 215.87C98.1487 212.811 96.4197 210.968 93.6647 210.968C90.7387 210.968 89.0477 213.058 89.0477 216.06C89.0477 219.081 90.7767 221.228 93.7027 221.228C95.7927 221.228 97.3887 220.126 98.0157 218.207L96.4197 218.017C95.9637 219.157 95.1277 219.803 93.7597 219.803C91.9927 219.803 90.8527 218.72 90.7957 216.516H98.1487V215.87ZM93.6837 212.393C95.2797 212.393 96.2867 213.4 96.5147 215.262H90.8147C90.9857 213.343 92.1257 212.393 93.6837 212.393ZM114.273 215.87C114.273 212.811 112.544 210.968 109.789 210.968C106.863 210.968 105.172 213.058 105.172 216.06C105.172 219.081 106.901 221.228 109.827 221.228C111.917 221.228 113.513 220.126 114.14 218.207L112.544 218.017C112.088 219.157 111.252 219.803 109.884 219.803C108.117 219.803 106.977 218.72 106.92 216.516H114.273V215.87ZM109.808 212.393C111.404 212.393 112.411 213.4 112.639 215.262H106.939C107.11 213.343 108.25 212.393 109.808 212.393ZM120.715 215.794L124.23 211.196H122.102L120.582 213.457L119.841 214.635L119.081 213.457L117.542 211.196H115.414L118.967 215.794L114.939 221H117.067L119.062 218.112L119.841 216.915L120.601 218.112L122.577 221H124.705L120.715 215.794ZM131.439 210.987C129.995 210.987 128.798 211.69 128.228 212.773V211.196H126.708V224.876H128.456V219.803C129.083 220.639 130.109 221.209 131.363 221.209C134.023 221.209 135.657 218.91 135.657 215.87C135.657 212.906 133.928 210.987 131.439 210.987ZM131.192 219.708C129.558 219.708 128.361 218.302 128.361 215.984C128.361 213.666 129.558 212.488 131.192 212.488C132.883 212.488 133.909 213.628 133.909 215.87C133.909 218.15 132.883 219.708 131.192 219.708ZM142.775 210.93C141.293 210.93 140.343 211.766 139.754 213.077V211.196H138.12V221H139.868V215.642C139.944 213.647 141.388 212.64 142.68 212.64C142.851 212.64 143.041 212.64 143.307 212.659V210.968C143.136 210.949 142.965 210.93 142.775 210.93ZM145.115 209.353H146.863V207.472H145.115V209.353ZM145.115 221H146.863V211.196H145.115V221ZM158.433 215.87C158.433 212.811 156.704 210.968 153.949 210.968C151.023 210.968 149.332 213.058 149.332 216.06C149.332 219.081 151.061 221.228 153.987 221.228C156.077 221.228 157.673 220.126 158.3 218.207L156.704 218.017C156.248 219.157 155.412 219.803 154.044 219.803C152.277 219.803 151.137 218.72 151.08 216.516H158.433V215.87ZM153.968 212.393C155.564 212.393 156.571 213.4 156.799 215.262H151.099C151.27 213.343 152.41 212.393 153.968 212.393ZM165.826 210.949C164.382 210.949 163.204 211.538 162.539 212.583V211.196H160.905V221H162.653V215.547C162.653 213.21 164.097 212.469 165.446 212.469C166.776 212.469 167.403 213.191 167.403 214.54V221H169.151V214.198C169.151 212.127 167.878 210.949 165.826 210.949ZM176.157 221.247C178.627 221.247 180.052 219.879 180.394 217.58H178.76C178.494 218.967 177.696 219.784 176.252 219.784C174.39 219.784 173.364 218.416 173.364 216.098C173.364 213.78 174.295 212.412 176.271 212.412C177.639 212.412 178.475 213.077 178.741 214.407H180.394C180.052 212.146 178.513 210.949 176.252 210.949C173.421 210.949 171.616 212.868 171.616 216.174C171.616 219.48 173.421 221.247 176.157 221.247ZM191.293 215.87C191.293 212.811 189.564 210.968 186.809 210.968C183.883 210.968 182.192 213.058 182.192 216.06C182.192 219.081 183.921 221.228 186.847 221.228C188.937 221.228 190.533 220.126 191.16 218.207L189.564 218.017C189.108 219.157 188.272 219.803 186.904 219.803C185.137 219.803 183.997 218.72 183.94 216.516H191.293V215.87ZM186.828 212.393C188.424 212.393 189.431 213.4 189.659 215.262H183.959C184.13 213.343 185.27 212.393 186.828 212.393ZM198.886 209.353H200.634V207.472H198.886V209.353ZM198.886 221H200.634V211.196H198.886V221ZM206.979 221.247C209.563 221.247 211.064 220.069 211.064 218.15C211.064 216.725 210.228 215.832 208.195 215.376L206.295 214.958C205.136 214.711 204.775 214.274 204.775 213.647C204.775 212.773 205.516 212.355 206.751 212.355C208.138 212.355 208.879 212.925 209.069 214.046L210.798 213.97C210.513 211.918 208.993 210.968 206.808 210.968C204.395 210.968 203.16 212.089 203.16 213.799C203.16 215.186 203.977 216.06 205.877 216.459L207.853 216.877C208.879 217.086 209.392 217.523 209.392 218.302C209.392 219.233 208.651 219.841 207.055 219.841C205.554 219.841 204.737 219.271 204.566 217.903L202.913 217.979C203.141 220.164 204.528 221.247 206.979 221.247ZM5.491 245.247C7.961 245.247 9.386 243.879 9.728 241.58H8.094C7.828 242.967 7.03 243.784 5.586 243.784C3.724 243.784 2.698 242.416 2.698 240.098C2.698 237.78 3.629 236.412 5.605 236.412C6.973 236.412 7.809 237.077 8.075 238.407H9.728C9.386 236.146 7.847 234.949 5.586 234.949C2.755 234.949 0.95 236.868 0.95 240.174C0.95 243.48 2.755 245.247 5.491 245.247ZM16.2382 245.247C18.9932 245.247 20.9692 243.1 20.9692 240.022C20.9692 236.906 19.0312 234.949 16.2952 234.949C13.4832 234.949 11.5262 236.944 11.5262 240.098C11.5262 243.176 13.4262 245.247 16.2382 245.247ZM16.2382 243.784C14.3952 243.784 13.2742 242.321 13.2742 240.098C13.2742 237.875 14.3762 236.412 16.2382 236.412C18.1382 236.412 19.2212 237.799 19.2212 240.022C19.2212 242.245 18.1382 243.784 16.2382 243.784ZM33.8451 234.949C32.4201 234.949 31.3751 235.519 30.7291 236.659C30.2921 235.538 29.3421 234.949 28.0121 234.949C26.6441 234.949 25.6751 235.557 25.0291 236.64L25.1051 235.196H23.4331V245H25.1811V239.775C25.1811 237.248 26.4351 236.469 27.5751 236.469C28.6581 236.469 29.2661 237.153 29.2661 238.293V245H31.0141V239.68C31.0141 237.153 32.2681 236.469 33.4081 236.469C34.4911 236.469 35.0991 237.153 35.0991 238.293V245H36.8471V238.274C36.8471 235.994 35.7641 234.949 33.8451 234.949ZM39.8911 233.353H41.6391V231.472H39.8911V233.353ZM39.8911 245H41.6391V235.196H39.8911V245ZM49.5992 234.949C48.1552 234.949 46.9772 235.538 46.3122 236.583V235.196H44.6782V245H46.4262V239.547C46.4262 237.21 47.8702 236.469 49.2192 236.469C50.5492 236.469 51.1762 237.191 51.1762 238.54V245H52.9242V238.198C52.9242 236.127 51.6512 234.949 49.5992 234.949ZM62.7995 235.196V236.716C62.2105 235.652 61.0515 234.987 59.6265 234.987C57.1375 234.987 55.3895 236.982 55.3895 239.946C55.3895 242.986 57.0045 245.209 59.6645 245.209C61.0325 245.209 62.1345 244.525 62.7425 243.575V244.867C62.7425 246.919 61.9065 247.736 59.8925 247.736C58.5055 247.736 57.6695 247.356 57.4035 246.254H55.6935C55.9595 248.249 57.5555 249.123 59.8355 249.123C62.6095 249.123 64.4335 247.85 64.4335 244.696V235.196H62.7995ZM59.8355 243.708C58.1445 243.708 57.1375 242.226 57.1375 239.946C57.1375 237.704 58.1825 236.488 59.8735 236.488C61.5075 236.488 62.6855 237.666 62.6855 239.984C62.6855 242.302 61.4695 243.708 59.8355 243.708ZM75.909 245.247C78.493 245.247 79.994 244.069 79.994 242.15C79.994 240.725 79.158 239.832 77.125 239.376L75.225 238.958C74.066 238.711 73.705 238.274 73.705 237.647C73.705 236.773 74.446 236.355 75.681 236.355C77.068 236.355 77.809 236.925 77.999 238.046L79.728 237.97C79.443 235.918 77.923 234.968 75.738 234.968C73.325 234.968 72.09 236.089 72.09 237.799C72.09 239.186 72.907 240.06 74.807 240.459L76.783 240.877C77.809 241.086 78.322 241.523 78.322 242.302C78.322 243.233 77.581 243.841 75.985 243.841C74.484 243.841 73.667 243.271 73.496 241.903L71.843 241.979C72.071 244.164 73.458 245.247 75.909 245.247ZM86.3192 245.247C89.0742 245.247 91.0502 243.1 91.0502 240.022C91.0502 236.906 89.1122 234.949 86.3762 234.949C83.5642 234.949 81.6072 236.944 81.6072 240.098C81.6072 243.176 83.5072 245.247 86.3192 245.247ZM86.3192 243.784C84.4762 243.784 83.3552 242.321 83.3552 240.098C83.3552 237.875 84.4572 236.412 86.3192 236.412C88.2192 236.412 89.3022 237.799 89.3022 240.022C89.3022 242.245 88.2192 243.784 86.3192 243.784ZM97.6561 245.247C100.411 245.247 102.387 243.1 102.387 240.022C102.387 236.906 100.449 234.949 97.7131 234.949C94.9011 234.949 92.9441 236.944 92.9441 240.098C92.9441 243.176 94.8441 245.247 97.6561 245.247ZM97.6561 243.784C95.8131 243.784 94.6921 242.321 94.6921 240.098C94.6921 237.875 95.7941 236.412 97.6561 236.412C99.5561 236.412 100.639 237.799 100.639 240.022C100.639 242.245 99.5561 243.784 97.6561 243.784ZM109.772 234.949C108.328 234.949 107.15 235.538 106.485 236.583V235.196H104.851V245H106.599V239.547C106.599 237.21 108.043 236.469 109.392 236.469C110.722 236.469 111.349 237.191 111.349 238.54V245H113.097V238.198C113.097 236.127 111.824 234.949 109.772 234.949ZM116.227 245H118.374V243.081H116.227V245ZM132.296 231.472H126.729V245H128.496V239.357H132.258C134.88 239.357 136.647 238.027 136.647 235.348C136.647 232.764 134.918 231.472 132.296 231.472ZM132.296 237.818H128.496V233.011H132.201C133.873 233.011 134.88 233.752 134.88 235.367C134.88 236.963 133.911 237.818 132.296 237.818ZM140.75 245H142.156V243.537H141.263C140.541 243.537 140.313 243.309 140.313 242.587V231.472H138.565V242.815C138.565 244.335 139.23 245 140.75 245ZM152.588 239.87C152.588 236.811 150.859 234.968 148.104 234.968C145.178 234.968 143.487 237.058 143.487 240.06C143.487 243.081 145.216 245.228 148.142 245.228C150.232 245.228 151.828 244.126 152.455 242.207L150.859 242.017C150.403 243.157 149.567 243.803 148.199 243.803C146.432 243.803 145.292 242.72 145.235 240.516H152.588V239.87ZM148.123 236.393C149.719 236.393 150.726 237.4 150.954 239.262H145.254C145.425 237.343 146.565 236.393 148.123 236.393ZM163.705 243.708C163.059 243.708 162.85 243.499 162.85 242.853V238.027C162.85 235.88 161.444 234.892 159.012 234.892C156.485 234.892 155.098 235.918 154.927 238.084H156.656C156.77 236.773 157.473 236.336 158.879 236.336C160.399 236.336 161.083 236.83 161.083 237.856V238.274C161.083 238.73 160.855 238.958 160.38 239.015L157.872 239.338C155.497 239.642 154.528 240.782 154.528 242.397C154.528 244.202 155.82 245.247 157.815 245.247C159.487 245.247 160.741 244.506 161.368 243.556C161.444 244.525 162.014 245 163.059 245H163.99V243.708H163.705ZM158.138 243.898C156.998 243.898 156.257 243.328 156.257 242.321C156.257 241.447 156.789 240.839 158.157 240.63L161.083 240.193V241.561C161.083 242.815 159.715 243.898 158.138 243.898ZM169.202 245.247C171.786 245.247 173.287 244.069 173.287 242.15C173.287 240.725 172.451 239.832 170.418 239.376L168.518 238.958C167.359 238.711 166.998 238.274 166.998 237.647C166.998 236.773 167.739 236.355 168.974 236.355C170.361 236.355 171.102 236.925 171.292 238.046L173.021 237.97C172.736 235.918 171.216 234.968 169.031 234.968C166.618 234.968 165.383 236.089 165.383 237.799C165.383 239.186 166.2 240.06 168.1 240.459L170.076 240.877C171.102 241.086 171.615 241.523 171.615 242.302C171.615 243.233 170.874 243.841 169.278 243.841C167.777 243.841 166.96 243.271 166.789 241.903L165.136 241.979C165.364 244.164 166.751 245.247 169.202 245.247ZM184.001 239.87C184.001 236.811 182.272 234.968 179.517 234.968C176.591 234.968 174.9 237.058 174.9 240.06C174.9 243.081 176.629 245.228 179.555 245.228C181.645 245.228 183.241 244.126 183.868 242.207L182.272 242.017C181.816 243.157 180.98 243.803 179.612 243.803C177.845 243.803 176.705 242.72 176.648 240.516H184.001V239.87ZM179.536 236.393C181.132 236.393 182.139 237.4 182.367 239.262H176.667C176.838 237.343 177.978 236.393 179.536 236.393ZM198.092 235.196V240.649C198.092 242.986 196.648 243.727 195.299 243.727C193.969 243.727 193.342 243.005 193.342 241.656V235.196H191.594V241.998C191.594 244.069 192.867 245.247 194.919 245.247C196.363 245.247 197.541 244.658 198.206 243.613V245H199.84V235.196H198.092ZM206.181 245.247C208.765 245.247 210.266 244.069 210.266 242.15C210.266 240.725 209.43 239.832 207.397 239.376L205.497 238.958C204.338 238.711 203.977 238.274 203.977 237.647C203.977 236.773 204.718 236.355 205.953 236.355C207.34 236.355 208.081 236.925 208.271 238.046L210 237.97C209.715 235.918 208.195 234.968 206.01 234.968C203.597 234.968 202.362 236.089 202.362 237.799C202.362 239.186 203.179 240.06 205.079 240.459L207.055 240.877C208.081 241.086 208.594 241.523 208.594 242.302C208.594 243.233 207.853 243.841 206.257 243.841C204.756 243.841 203.939 243.271 203.768 241.903L202.115 241.979C202.343 244.164 203.73 245.247 206.181 245.247ZM220.981 239.87C220.981 236.811 219.252 234.968 216.497 234.968C213.571 234.968 211.88 237.058 211.88 240.06C211.88 243.081 213.609 245.228 216.535 245.228C218.625 245.228 220.221 244.126 220.848 242.207L219.252 242.017C218.796 243.157 217.96 243.803 216.592 243.803C214.825 243.803 213.685 242.72 213.628 240.516H220.981V239.87ZM216.516 236.393C218.112 236.393 219.119 237.4 219.347 239.262H213.647C213.818 237.343 214.958 236.393 216.516 236.393ZM237.219 243.708C236.573 243.708 236.364 243.499 236.364 242.853V238.027C236.364 235.88 234.958 234.892 232.526 234.892C229.999 234.892 228.612 235.918 228.441 238.084H230.17C230.284 236.773 230.987 236.336 232.393 236.336C233.913 236.336 234.597 236.83 234.597 237.856V238.274C234.597 238.73 234.369 238.958 233.894 239.015L231.386 239.338C229.011 239.642 228.042 240.782 228.042 242.397C228.042 244.202 229.334 245.247 231.329 245.247C233.001 245.247 234.255 244.506 234.882 243.556C234.958 244.525 235.528 245 236.573 245H237.504V243.708H237.219ZM231.652 243.898C230.512 243.898 229.771 243.328 229.771 242.321C229.771 241.447 230.303 240.839 231.671 240.63L234.597 240.193V241.561C234.597 242.815 233.229 243.898 231.652 243.898ZM8.151 255.472V260.374C7.524 259.519 6.46 258.987 5.187 258.987C2.698 258.987 0.95 260.982 0.95 263.946C0.95 266.986 2.565 269.209 5.225 269.209C6.65 269.209 7.79 268.468 8.379 267.442V269H9.899V255.472H8.151ZM5.396 267.708C3.705 267.708 2.698 266.226 2.698 263.946C2.698 261.704 3.743 260.488 5.434 260.488C7.068 260.488 8.246 261.666 8.246 263.984C8.246 266.302 7.03 267.708 5.396 267.708ZM21.4621 263.87C21.4621 260.811 19.7331 258.968 16.9781 258.968C14.0521 258.968 12.3611 261.058 12.3611 264.06C12.3611 267.081 14.0901 269.228 17.0161 269.228C19.1061 269.228 20.7021 268.126 21.3291 266.207L19.7331 266.017C19.2771 267.157 18.4411 267.803 17.0731 267.803C15.3061 267.803 14.1661 266.72 14.1091 264.516H21.4621V263.87ZM16.9971 260.393C18.5931 260.393 19.6001 261.4 19.8281 263.262H14.1281C14.2991 261.343 15.4391 260.393 16.9971 260.393ZM27.2401 269.247C29.8241 269.247 31.3251 268.069 31.3251 266.15C31.3251 264.725 30.4891 263.832 28.4561 263.376L26.5561 262.958C25.3971 262.711 25.0361 262.274 25.0361 261.647C25.0361 260.773 25.7771 260.355 27.0121 260.355C28.3991 260.355 29.1401 260.925 29.3301 262.046L31.0591 261.97C30.7741 259.918 29.2541 258.968 27.0691 258.968C24.6561 258.968 23.4211 260.089 23.4211 261.799C23.4211 263.186 24.2381 264.06 26.1381 264.459L28.1141 264.877C29.1401 265.086 29.6531 265.523 29.6531 266.302C29.6531 267.233 28.9121 267.841 27.3161 267.841C25.8151 267.841 24.9981 267.271 24.8271 265.903L23.1741 265.979C23.4021 268.164 24.7891 269.247 27.2401 269.247ZM37.8783 262.806L41.7923 259.196H39.5883L36.7573 261.932L35.1803 263.566L35.2563 261.172V255.472H33.5083V269H35.2563V265.181L36.7383 263.832L37.7833 265.58L40.0253 269H42.0773L37.8783 262.806ZM45.9558 260.469L48.1978 260.545V259.196L45.9558 259.272V256.194H44.2078V259.253L42.7448 259.196V260.545L44.2078 260.469V266.815C44.2078 268.335 44.8728 269 46.3928 269H48.1788V267.537H46.9058C46.1838 267.537 45.9558 267.309 45.9558 266.587V260.469ZM54.4237 269.247C57.1787 269.247 59.1547 267.1 59.1547 264.022C59.1547 260.906 57.2167 258.949 54.4807 258.949C51.6687 258.949 49.7117 260.944 49.7117 264.098C49.7117 267.176 51.6117 269.247 54.4237 269.247ZM54.4237 267.784C52.5807 267.784 51.4597 266.321 51.4597 264.098C51.4597 261.875 52.5617 260.412 54.4237 260.412C56.3237 260.412 57.4067 261.799 57.4067 264.022C57.4067 266.245 56.3237 267.784 54.4237 267.784ZM66.3496 258.987C64.9056 258.987 63.7086 259.69 63.1386 260.773V259.196H61.6186V272.876H63.3666V267.803C63.9936 268.639 65.0196 269.209 66.2736 269.209C68.9336 269.209 70.5676 266.91 70.5676 263.87C70.5676 260.906 68.8386 258.987 66.3496 258.987ZM66.1026 267.708C64.4686 267.708 63.2716 266.302 63.2716 263.984C63.2716 261.666 64.4686 260.488 66.1026 260.488C67.7936 260.488 68.8196 261.628 68.8196 263.87C68.8196 266.15 67.7936 267.708 66.1026 267.708ZM80.4119 260.469L82.6539 260.545V259.196L80.4119 259.272V256.194H78.6639V259.253L77.2009 259.196V260.545L78.6639 260.469V266.815C78.6639 268.335 79.3289 269 80.8489 269H82.6349V267.537H81.3619C80.6399 267.537 80.4119 267.309 80.4119 266.587V260.469ZM88.8798 269.247C91.6348 269.247 93.6108 267.1 93.6108 264.022C93.6108 260.906 91.6728 258.949 88.9368 258.949C86.1248 258.949 84.1678 260.944 84.1678 264.098C84.1678 267.176 86.0678 269.247 88.8798 269.247ZM88.8798 267.784C87.0368 267.784 85.9158 266.321 85.9158 264.098C85.9158 261.875 87.0178 260.412 88.8798 260.412C90.7798 260.412 91.8628 261.799 91.8628 264.022C91.8628 266.245 90.7798 267.784 88.8798 267.784ZM105.927 258.987C104.483 258.987 103.286 259.69 102.716 260.773V259.196H101.196V272.876H102.944V267.803C103.571 268.639 104.597 269.209 105.851 269.209C108.511 269.209 110.145 266.91 110.145 263.87C110.145 260.906 108.416 258.987 105.927 258.987ZM105.68 267.708C104.046 267.708 102.849 266.302 102.849 263.984C102.849 261.666 104.046 260.488 105.68 260.488C107.371 260.488 108.397 261.628 108.397 263.87C108.397 266.15 107.371 267.708 105.68 267.708ZM114.792 269H116.198V267.537H115.305C114.583 267.537 114.355 267.309 114.355 266.587V255.472H112.607V266.815C112.607 268.335 113.272 269 114.792 269ZM126.837 267.708C126.191 267.708 125.982 267.499 125.982 266.853V262.027C125.982 259.88 124.576 258.892 122.144 258.892C119.617 258.892 118.23 259.918 118.059 262.084H119.788C119.902 260.773 120.605 260.336 122.011 260.336C123.531 260.336 124.215 260.83 124.215 261.856V262.274C124.215 262.73 123.987 262.958 123.512 263.015L121.004 263.338C118.629 263.642 117.66 264.782 117.66 266.397C117.66 268.202 118.952 269.247 120.947 269.247C122.619 269.247 123.873 268.506 124.5 267.556C124.576 268.525 125.146 269 126.191 269H127.122V267.708H126.837ZM121.27 267.898C120.13 267.898 119.389 267.328 119.389 266.321C119.389 265.447 119.921 264.839 121.289 264.63L124.215 264.193V265.561C124.215 266.815 122.847 267.898 121.27 267.898ZM134.708 259.196L132.504 265.371C132.314 265.884 132.124 266.454 131.972 266.986C131.82 266.454 131.63 265.884 131.44 265.371L129.122 259.196H127.222L131.174 268.905L130.718 270.102C130.319 271.128 129.977 271.413 129.084 271.413H128.172V272.876H129.255C130.642 272.876 131.364 272.42 131.953 270.919L136.513 259.196H134.708ZM154.498 259.196L152.883 264.858L152.313 267.195L151.838 264.858L150.432 259.196H148.532L147.126 264.858L146.613 267.195L146.024 264.858L144.485 259.196H142.585L145.682 269H147.468L148.95 263.148L149.482 260.678L149.976 263.148L151.363 269H153.111L156.303 259.196H154.498ZM158.307 257.353H160.055V255.472H158.307V257.353ZM158.307 269H160.055V259.196H158.307V269ZM165.355 260.469L167.597 260.545V259.196L165.355 259.272V256.194H163.607V259.253L162.144 259.196V260.545L163.607 260.469V266.815C163.607 268.335 164.272 269 165.792 269H167.578V267.537H166.305C165.583 267.537 165.355 267.309 165.355 266.587V260.469ZM174.602 258.949C173.234 258.949 172.113 259.481 171.429 260.431V255.472H169.681V269H171.429V263.547C171.429 261.21 172.873 260.469 174.222 260.469C175.552 260.469 176.179 261.191 176.179 262.54V269H177.927V262.198C177.927 260.127 176.654 258.949 174.602 258.949ZM188.344 260.469L190.586 260.545V259.196L188.344 259.272V256.194H186.596V259.253L185.133 259.196V260.545L186.596 260.469V266.815C186.596 268.335 187.261 269 188.781 269H190.567V267.537H189.294C188.572 267.537 188.344 267.309 188.344 266.587V260.469ZM197.591 258.949C196.223 258.949 195.102 259.481 194.418 260.431V255.472H192.67V269H194.418V263.547C194.418 261.21 195.862 260.469 197.211 260.469C198.541 260.469 199.168 261.191 199.168 262.54V269H200.916V262.198C200.916 260.127 199.643 258.949 197.591 258.949ZM212.483 263.87C212.483 260.811 210.754 258.968 207.999 258.968C205.073 258.968 203.382 261.058 203.382 264.06C203.382 267.081 205.111 269.228 208.037 269.228C210.127 269.228 211.723 268.126 212.35 266.207L210.754 266.017C210.298 267.157 209.462 267.803 208.094 267.803C206.327 267.803 205.187 266.72 205.13 264.516H212.483V263.87ZM208.018 260.393C209.614 260.393 210.621 261.4 210.849 263.262H205.149C205.32 261.343 206.46 260.393 208.018 260.393ZM12.559 279.472L8.854 289.808L8.398 291.157L7.942 289.808L4.104 279.472H1.615V293H3.23V284.032L3.173 281.581L4.066 283.709L7.562 293H9.234L12.464 284.013L13.433 281.6L13.395 284.032V293H15.01V279.472H12.559ZM22.287 293.247C25.042 293.247 27.018 291.1 27.018 288.022C27.018 284.906 25.08 282.949 22.344 282.949C19.532 282.949 17.575 284.944 17.575 288.098C17.575 291.176 19.475 293.247 22.287 293.247ZM22.287 291.784C20.444 291.784 19.323 290.321 19.323 288.098C19.323 285.875 20.425 284.412 22.287 284.412C24.187 284.412 25.27 285.799 25.27 288.022C25.27 290.245 24.187 291.784 22.287 291.784ZM34.4029 282.949C32.9589 282.949 31.7809 283.538 31.1159 284.583V283.196H29.4819V293H31.2299V287.547C31.2299 285.21 32.6739 284.469 34.0229 284.469C35.3529 284.469 35.9799 285.191 35.9799 286.54V293H37.7279V286.198C37.7279 284.127 36.4549 282.949 34.4029 282.949ZM44.9052 293.247C47.6602 293.247 49.6362 291.1 49.6362 288.022C49.6362 284.906 47.6982 282.949 44.9622 282.949C42.1502 282.949 40.1932 284.944 40.1932 288.098C40.1932 291.176 42.0932 293.247 44.9052 293.247ZM44.9052 291.784C43.0622 291.784 41.9412 290.321 41.9412 288.098C41.9412 285.875 43.0432 284.412 44.9052 284.412C46.8052 284.412 47.8882 285.799 47.8882 288.022C47.8882 290.245 46.8052 291.784 44.9052 291.784ZM54.1755 284.469L56.4175 284.545V283.196L54.1755 283.272V280.194H52.4275V283.253L50.9645 283.196V284.545L52.4275 284.469V290.815C52.4275 292.335 53.0925 293 54.6125 293H56.3985V291.537H55.1255C54.4035 291.537 54.1755 291.309 54.1755 290.587V284.469ZM64.9424 283.196L62.7384 289.371C62.5484 289.884 62.3584 290.454 62.2064 290.986C62.0544 290.454 61.8644 289.884 61.6744 289.371L59.3564 283.196H57.4564L61.4084 292.905L60.9524 294.102C60.5534 295.128 60.2114 295.413 59.3184 295.413H58.4064V296.876H59.4894C60.8764 296.876 61.5984 296.42 62.1874 294.919L66.7474 283.196H64.9424ZM73.4746 282.987C72.0306 282.987 70.8336 283.69 70.2636 284.773V283.196H68.7436V296.876H70.4916V291.803C71.1186 292.639 72.1446 293.209 73.3986 293.209C76.0586 293.209 77.6926 290.91 77.6926 287.87C77.6926 284.906 75.9636 282.987 73.4746 282.987ZM73.2276 291.708C71.5936 291.708 70.3966 290.302 70.3966 287.984C70.3966 285.666 71.5936 284.488 73.2276 284.488C74.9186 284.488 75.9446 285.628 75.9446 287.87C75.9446 290.15 74.9186 291.708 73.2276 291.708ZM88.6858 287.87C88.6858 284.811 86.9568 282.968 84.2018 282.968C81.2758 282.968 79.5848 285.058 79.5848 288.06C79.5848 291.081 81.3138 293.228 84.2398 293.228C86.3298 293.228 87.9258 292.126 88.5528 290.207L86.9568 290.017C86.5008 291.157 85.6648 291.803 84.2968 291.803C82.5298 291.803 81.3898 290.72 81.3328 288.516H88.6858V287.87ZM84.2208 284.393C85.8168 284.393 86.8238 285.4 87.0518 287.262H81.3518C81.5228 285.343 82.6628 284.393 84.2208 284.393ZM105.836 293H107.793L102.568 279.472H100.573L95.3288 293H97.2098L98.6728 289.029H104.411L105.836 293ZM99.2428 287.49L101.124 282.36L101.58 280.954L102.017 282.36L103.86 287.49H99.2428ZM109.974 293H111.741V279.472H109.974V293ZM124.723 282.987C123.279 282.987 122.082 283.69 121.512 284.773V283.196H119.992V296.876H121.74V291.803C122.367 292.639 123.393 293.209 124.647 293.209C127.307 293.209 128.941 290.91 128.941 287.87C128.941 284.906 127.212 282.987 124.723 282.987ZM124.476 291.708C122.842 291.708 121.645 290.302 121.645 287.984C121.645 285.666 122.842 284.488 124.476 284.488C126.167 284.488 127.193 285.628 127.193 287.87C127.193 290.15 126.167 291.708 124.476 291.708ZM140.048 291.708C139.402 291.708 139.193 291.499 139.193 290.853V286.027C139.193 283.88 137.787 282.892 135.355 282.892C132.828 282.892 131.441 283.918 131.27 286.084H132.999C133.113 284.773 133.816 284.336 135.222 284.336C136.742 284.336 137.426 284.83 137.426 285.856V286.274C137.426 286.73 137.198 286.958 136.723 287.015L134.215 287.338C131.84 287.642 130.871 288.782 130.871 290.397C130.871 292.202 132.163 293.247 134.158 293.247C135.83 293.247 137.084 292.506 137.711 291.556C137.787 292.525 138.357 293 139.402 293H140.333V291.708H140.048ZM134.481 291.898C133.341 291.898 132.6 291.328 132.6 290.321C132.6 289.447 133.132 288.839 134.5 288.63L137.426 288.193V289.561C137.426 290.815 136.058 291.898 134.481 291.898ZM142.239 281.353H143.987V279.472H142.239V281.353ZM142.239 293H143.987V283.196H142.239V293ZM151.681 282.93C150.199 282.93 149.249 283.766 148.66 285.077V283.196H147.026V293H148.774V287.642C148.85 285.647 150.294 284.64 151.586 284.64C151.757 284.64 151.947 284.64 152.213 284.659V282.968C152.042 282.949 151.871 282.93 151.681 282.93ZM154.021 281.353H155.769V279.472H154.021V281.353ZM154.021 293H155.769V283.196H154.021V293ZM163.729 282.949C162.285 282.949 161.107 283.538 160.442 284.583V283.196H158.808V293H160.556V287.547C160.556 285.21 162 284.469 163.349 284.469C164.679 284.469 165.306 285.191 165.306 286.54V293H167.054V286.198C167.054 284.127 165.781 282.949 163.729 282.949ZM176.929 283.196V284.716C176.34 283.652 175.181 282.987 173.756 282.987C171.267 282.987 169.519 284.982 169.519 287.946C169.519 290.986 171.134 293.209 173.794 293.209C175.162 293.209 176.264 292.525 176.872 291.575V292.867C176.872 294.919 176.036 295.736 174.022 295.736C172.635 295.736 171.799 295.356 171.533 294.254H169.823C170.089 296.249 171.685 297.123 173.965 297.123C176.739 297.123 178.563 295.85 178.563 292.696V283.196H176.929ZM173.965 291.708C172.274 291.708 171.267 290.226 171.267 287.946C171.267 285.704 172.312 284.488 174.003 284.488C175.637 284.488 176.815 285.666 176.815 287.984C176.815 290.302 175.599 291.708 173.965 291.708ZM195.264 287.87C195.264 284.811 193.535 282.968 190.78 282.968C187.854 282.968 186.163 285.058 186.163 288.06C186.163 291.081 187.892 293.228 190.818 293.228C192.908 293.228 194.504 292.126 195.131 290.207L193.535 290.017C193.079 291.157 192.243 291.803 190.875 291.803C189.108 291.803 187.968 290.72 187.911 288.516H195.264V287.87ZM190.799 284.393C192.395 284.393 193.402 285.4 193.63 287.262H187.93C188.101 285.343 189.241 284.393 190.799 284.393ZM202.657 282.949C201.213 282.949 200.035 283.538 199.37 284.583V283.196H197.736V293H199.484V287.547C199.484 285.21 200.928 284.469 202.277 284.469C203.607 284.469 204.234 285.191 204.234 286.54V293H205.982V286.198C205.982 284.127 204.709 282.949 202.657 282.949ZM215.857 283.196V284.716C215.268 283.652 214.109 282.987 212.684 282.987C210.195 282.987 208.447 284.982 208.447 287.946C208.447 290.986 210.062 293.209 212.722 293.209C214.09 293.209 215.192 292.525 215.8 291.575V292.867C215.8 294.919 214.964 295.736 212.95 295.736C211.563 295.736 210.727 295.356 210.461 294.254H208.751C209.017 296.249 210.613 297.123 212.893 297.123C215.667 297.123 217.491 295.85 217.491 292.696V283.196H215.857ZM212.893 291.708C211.202 291.708 210.195 290.226 210.195 287.946C210.195 285.704 211.24 284.488 212.931 284.488C214.565 284.488 215.743 285.666 215.743 287.984C215.743 290.302 214.527 291.708 212.893 291.708ZM220.54 281.353H222.288V279.472H220.54V281.353ZM220.54 293H222.288V283.196H220.54V293ZM230.248 282.949C228.804 282.949 227.626 283.538 226.961 284.583V283.196H225.327V293H227.075V287.547C227.075 285.21 228.519 284.469 229.868 284.469C231.198 284.469 231.825 285.191 231.825 286.54V293H233.573V286.198C233.573 284.127 232.3 282.949 230.248 282.949ZM245.139 287.87C245.139 284.811 243.41 282.968 240.655 282.968C237.729 282.968 236.038 285.058 236.038 288.06C236.038 291.081 237.767 293.228 240.693 293.228C242.783 293.228 244.379 292.126 245.006 290.207L243.41 290.017C242.954 291.157 242.118 291.803 240.75 291.803C238.983 291.803 237.843 290.72 237.786 288.516H245.139V287.87ZM240.674 284.393C242.27 284.393 243.277 285.4 243.505 287.262H237.805C237.976 285.343 239.116 284.393 240.674 284.393ZM247.706 293H249.853V291.081H247.706V293Z" fill="#DBDFE5"/>
<defs>
<clipPath id="clip0_1529_9963">
<rect width="128" height="24" fill="white"/>
</clipPath>
</defs>
</svg>
