<svg width="16" height="16" viewBox="0 0 16 16" fill="none" xmlns="http://www.w3.org/2000/svg">
    <path fillRule="evenodd" clipRule="evenodd" d="M5 2C5 1.0335 5.7835 0.25 6.75 0.25H9.25C10.2165 0.25 11 1.0335 11 2V3.5H14.25C14.6642 3.5 15 3.83579 15 4.25C15 4.66421 14.6642 5 14.25 5H14C14 5.02588 13.9986 5.05201 13.9958 5.07832L13.1339 13.2872C12.9869 14.6871 11.8066 15.75 10.3989 15.75L5.60094 15.75C4.19333 15.75 3.01296 14.6871 2.86597 13.2872L2.00404 5.07832C2.00128 5.05201 1.99991 5.02588 1.99988 5H1.75C1.33579 5 1 4.66421 1 4.25C1 3.83579 1.33579 3.5 1.75 3.5H5V2ZM3.50406 5L4.35777 13.1305C4.42458 13.7669 4.96111 14.25 5.60093 14.25L10.3989 14.25C11.0388 14.25 11.5753 13.7669 11.6421 13.1305L12.4958 5H3.50406ZM9.5 2V3.5H6.5V2C6.5 1.86193 6.61193 1.75 6.75 1.75H9.25C9.38807 1.75 9.5 1.86193 9.5 2ZM6.5 6.5C6.91421 6.5 7.25 6.83579 7.25 7.25V11.75C7.25 12.1642 6.91421 12.5 6.5 12.5C6.08579 12.5 5.75 12.1642 5.75 11.75V7.25C5.75 6.83579 6.08579 6.5 6.5 6.5ZM10.25 7.25C10.25 6.83579 9.91421 6.5 9.5 6.5C9.08579 6.5 8.75 6.83579 8.75 7.25V11.75C8.75 12.1642 9.08579 12.5 9.5 12.5C9.91421 12.5 10.25 12.1642 10.25 11.75V7.25Z" fill="#AA001B"/>
</svg>
