<svg width="16" height="14" viewBox="0 0 16 14" fill="none" xmlns="http://www.w3.org/2000/svg">
<path d="M6.27656 11.6107V11.6105V7.2665C6.27656 6.6823 6.46604 6.11386 6.81656 5.6465L7.93651 4.15377L7.93656 4.1537C8.4169 3.51324 8.67656 2.73427 8.67656 1.9337V1.4001C8.67656 1.32053 8.70817 1.24423 8.76443 1.18797C8.82069 1.1317 8.897 1.1001 8.97656 1.1001C9.2683 1.1001 9.54809 1.21599 9.75438 1.42228C9.96067 1.62857 10.0766 1.90836 10.0766 2.2001V5.4001V5.9001H10.5766H13.4245C13.4245 5.9001 13.4245 5.9001 13.4246 5.9001C13.5873 5.90012 13.7479 5.93624 13.895 6.00585C14.0421 6.07548 14.1719 6.17686 14.2751 6.3027C14.3782 6.42855 14.4522 6.57571 14.4916 6.73359C14.531 6.89145 14.535 7.05609 14.5031 7.21564C14.5031 7.21566 14.5031 7.21568 14.5031 7.2157L13.5431 12.0156L13.5431 12.0157C13.4932 12.2652 13.3584 12.4896 13.1617 12.6509C12.9649 12.8121 12.7184 12.9002 12.464 12.9001H12.4638H8.13112C8.13107 12.9001 8.13101 12.9001 8.13096 12.9001C7.71232 12.8999 7.29944 12.8024 6.92496 12.6153C6.92494 12.6153 6.92492 12.6153 6.9249 12.6152L6.88496 12.5953L6.88486 12.5952C6.70201 12.5039 6.54823 12.3633 6.44078 12.1894C6.33333 12.0155 6.27647 11.8151 6.27656 11.6107ZM1.47656 7.66676C1.47656 7.20653 1.84966 6.83343 2.3099 6.83343H3.64323C4.10347 6.83343 4.47656 7.20653 4.47656 7.66676V11.8334C4.47656 12.2937 4.10347 12.6668 3.64323 12.6668H2.3099C1.84966 12.6668 1.47656 12.2937 1.47656 11.8334V7.66676Z" stroke="#8C9AAD"/>
</svg>
